<svg width="639" height="656" viewBox="0 0 639 656" fill="none" xmlns="http://www.w3.org/2000/svg">
<circle cx="155.174" cy="155.174" r="155.174" transform="rotate(-90 155.174 155.174)" fill="#EF6CB2"/>
<path d="M0 155.174L-6.78286e-06 -1.52588e-05L153.4 -2.19641e-05L153.4 155.174L0 155.174Z" fill="#EF6CB2"/>
<circle cx="381.5" cy="342.5" r="313.5" transform="rotate(-90 381.5 342.5)" fill="#0F766E"/>
<path d="M152.5 53C207.883 53 253 98.3209 253 154.5C253 210.679 207.883 256 152.5 256C97.117 256 52 210.679 52 154.5C52 98.3209 97.117 53 152.5 53Z" stroke="white" stroke-width="30"/>
<path d="M356.889 288.678H397.917C400.456 288.678 402.559 287.846 404.223 286.181C405.88 284.524 406.708 282.426 406.708 279.886C406.708 277.346 405.88 275.244 404.223 273.58C402.559 271.923 400.456 271.094 397.917 271.094H356.889C354.349 271.094 352.251 271.923 350.594 273.58C348.929 275.244 348.097 277.346 348.097 279.886C348.097 282.426 348.929 284.524 350.594 286.181C352.251 287.846 354.349 288.678 356.889 288.678ZM436.014 383.042H477.042C479.581 383.042 481.684 382.213 483.348 380.557C485.005 378.892 485.833 376.79 485.833 374.25C485.833 371.71 485.005 369.612 483.348 367.955C481.684 366.291 479.581 365.458 477.042 365.458H436.014C433.474 365.458 431.376 366.291 429.719 367.955C428.055 369.612 427.222 371.71 427.222 374.25C427.222 376.79 428.055 378.892 429.719 380.557C431.376 382.213 433.474 383.042 436.014 383.042ZM436.014 353.736H477.042C479.581 353.736 481.684 352.904 483.348 351.239C485.005 349.583 485.833 347.484 485.833 344.944C485.833 342.405 485.005 340.302 483.348 338.638C481.684 336.981 479.581 336.153 477.042 336.153H436.014C433.474 336.153 431.376 336.981 429.719 338.638C428.055 340.302 427.222 342.405 427.222 344.944C427.222 347.484 428.055 349.583 429.719 351.239C431.376 352.904 433.474 353.736 436.014 353.736ZM377.403 391.833C379.943 391.833 382.045 391.005 383.709 389.348C385.366 387.684 386.194 385.581 386.194 383.042V368.389H400.847C403.387 368.389 405.489 367.557 407.154 365.892C408.811 364.235 409.639 362.137 409.639 359.597C409.639 357.057 408.811 354.955 407.154 353.291C405.489 351.634 403.387 350.806 400.847 350.806H386.194V336.153C386.194 333.613 385.366 331.511 383.709 329.846C382.045 328.189 379.943 327.361 377.403 327.361C374.863 327.361 372.765 328.189 371.108 329.846C369.443 331.511 368.611 333.613 368.611 336.153V350.806H353.958C351.419 350.806 349.32 351.634 347.663 353.291C345.999 354.955 345.167 357.057 345.167 359.597C345.167 362.137 345.999 364.235 347.663 365.892C349.32 367.557 351.419 368.389 353.958 368.389H368.611V383.042C368.611 385.581 369.443 387.684 371.108 389.348C372.765 391.005 374.863 391.833 377.403 391.833ZM433.962 303.038C435.721 304.796 437.772 305.675 440.117 305.675C442.461 305.675 444.512 304.796 446.271 303.038L456.528 292.781L467.078 303.331C468.641 304.894 470.594 305.675 472.939 305.675C475.283 305.675 477.335 304.796 479.093 303.038C480.656 301.475 481.438 299.47 481.438 297.024C481.438 294.586 480.656 292.488 479.093 290.729L468.836 279.886L479.386 269.336C480.949 267.773 481.731 265.819 481.731 263.475C481.731 261.131 480.851 259.079 479.093 257.321C477.335 255.563 475.283 254.683 472.939 254.683C470.594 254.683 468.543 255.563 466.785 257.321L456.528 267.578L445.978 257.028C444.415 255.465 442.461 254.683 440.117 254.683C437.772 254.683 435.721 255.563 433.962 257.321C432.204 259.079 431.325 261.131 431.325 263.475C431.325 265.819 432.204 267.871 433.962 269.629L444.219 279.886L433.669 290.729C432.106 292.488 431.325 294.539 431.325 296.883C431.325 299.228 432.204 301.279 433.962 303.038ZM333.444 427C326.997 427 321.476 424.706 316.881 420.119C312.294 415.524 310 410.003 310 403.556V239.444C310 232.997 312.294 227.476 316.881 222.881C321.476 218.294 326.997 216 333.444 216H497.556C504.003 216 509.524 218.294 514.119 222.881C518.706 227.476 521 232.997 521 239.444V403.556C521 410.003 518.706 415.524 514.119 420.119C509.524 424.706 504.003 427 497.556 427H333.444ZM333.444 403.556H497.556V239.444H333.444V403.556Z" fill="white"/>
<rect x="28" y="483" width="234" height="49" rx="24.5" fill="#CBD5E1"/>
<rect x="293" y="483" width="80" height="49" rx="24.5" fill="#CBD5E1"/>
</svg>